<svg width="77" height="36" viewBox="0 0 77 36" fill="none" xmlns="http://www.w3.org/2000/svg">
<path d="M65.3974 16.4585L63.4492 19.8341H61.7529L64.4711 15.3858H66.3274L69.0419 19.8308H67.3457L66.8892 19.037H64.3722L64.7912 18.3557C64.8968 18.2023 65.0737 18.1103 65.2577 18.107H66.3477L65.3974 16.4585Z" fill="#005DAC"/>
<path d="M74.144 18.9008L73.725 19.5854C73.6194 19.7388 73.4458 19.8308 73.2585 19.8341H70.8571C70.0261 19.8341 69.3926 19.5104 69.3926 18.5535V15.3891H70.8299V18.4207C70.8299 18.7444 71.0921 18.9045 71.4225 18.9045H74.144V18.9012V18.9008Z" fill="#005DAC"/>
<path d="M35.2119 17.6096V17.5824C35.2152 17.2484 35.2903 16.9217 35.43 16.6186C35.5698 16.3154 35.774 16.0465 36.0227 15.8284C36.0466 15.8045 36.0738 15.7842 36.101 15.7636C36.537 15.4333 37.2558 15.3891 37.8245 15.3891H41.2545L40.8425 16.0704C40.7914 16.1455 40.72 16.2102 40.638 16.2544C40.5563 16.2985 40.4644 16.3224 40.3724 16.3224H39.2415C38.3594 16.3224 37.0174 16.3805 37.0174 17.5861V17.6133V17.6405C37.0174 18.8464 38.3594 18.9041 39.2415 18.9041H39.8103V18.1103H37.9301L38.3491 17.429C38.4002 17.3543 38.4716 17.2929 38.5536 17.2484C38.6353 17.2042 38.7239 17.1837 38.8192 17.1803H41.2582V19.8338H37.8282C37.2594 19.8338 36.5406 19.7863 36.1047 19.4593C36.0775 19.4387 36.0502 19.4151 36.0263 19.3945C35.7743 19.1764 35.5735 18.9075 35.4337 18.6043C35.2939 18.3012 35.2192 17.9742 35.2156 17.6405V17.6133L35.2122 17.61L35.2119 17.6096Z" fill="#005DAC"/>
<path d="M61.5205 19.8338L60.4817 18.1L60.4066 17.9569C60.6178 17.8547 60.7984 17.7016 60.9312 17.514C61.0776 17.3062 61.1527 17.0575 61.1457 16.8055C61.1457 16.6252 61.1115 16.4443 61.0434 16.2743C60.9754 16.104 60.8731 15.9472 60.7436 15.8144C60.6038 15.6747 60.4372 15.5691 60.2532 15.4977C60.0454 15.4193 59.8206 15.3785 59.5959 15.3818L56.874 15.3822L57.2386 16.3052H59.0577C59.1905 16.2985 59.3166 16.3463 59.4119 16.438C59.4969 16.5196 59.5447 16.6322 59.5447 16.7514C59.5447 16.8739 59.4973 16.9967 59.4119 17.0884C59.32 17.1803 59.1905 17.2793 59.0577 17.2723L57.5829 17.2726L57.9132 18.1853H58.8873L59.8276 19.8305H61.5239L61.5205 19.8338Z" fill="#005DAC"/>
<path d="M50.0622 15.3891V17.8789L48.3421 15.3891H46.6289V19.8338H48.0732V17.3679L48.0868 17.3882L49.7764 19.8338H51.5065V15.3891H50.0622Z" fill="#005DAC"/>
<path d="M43.3019 16.8709V17.1229L45.3694 17.1163L44.9334 17.8384C44.9334 17.8384 44.8382 18.0326 44.552 18.0326L43.3155 18.0462L43.3258 18.4583C43.3258 18.4583 43.3258 18.4994 43.3394 18.5403C43.4178 18.7514 43.6154 18.9015 43.8537 18.9015L45.6453 18.9081H46.0271V19.8311H41.8613V15.3861H46.0271V16.3091L43.8541 16.3194C43.5509 16.3194 43.3023 16.5648 43.3023 16.8712L43.3019 16.8709Z" fill="#005DAC"/>
<path d="M53.5503 16.8709V17.1229L55.6178 17.1163L55.1818 17.8384C55.1818 17.8384 55.0865 18.0326 54.8003 18.0326L53.5639 18.0462L53.5742 18.4583C53.5742 18.4583 53.5742 18.4994 53.5878 18.5403C53.6662 18.7514 53.8637 18.9015 54.1021 18.9015L55.8937 18.9081H56.2751V19.8311H52.1094V15.3861H56.2751V16.3091L54.1021 16.3194C53.799 16.3194 53.5503 16.5648 53.5503 16.8712H53.55L53.5503 16.8709Z" fill="#005DAC"/>
<path d="M32.362 2.85798H2.8584V32.3616H32.362V2.85798Z" fill="#005DAC"/>
<path d="M4.48633 30.7301V26.7928H7.96715C8.68595 26.7928 9.84036 26.8914 9.84036 27.8247C9.84036 28.2845 9.43829 28.6079 8.9685 28.7274C9.5545 28.9047 9.84036 29.2248 9.84036 29.6677C9.84036 30.6315 8.74372 30.7235 7.96715 30.7268H4.48633V30.7301ZM5.76358 29.0714L6.12813 28.4684C6.22342 28.3323 6.37681 28.2503 6.54381 28.2503H7.96748C8.2228 28.2503 8.42732 28.1344 8.42732 27.9369C8.42732 27.7393 8.2228 27.6201 7.96748 27.6201H5.76391V29.071L5.76358 29.0714ZM5.76358 29.0714V30.7268L6.12813 30.1238C6.22342 29.9877 6.37681 29.9057 6.54381 29.9057H7.94723C8.21317 29.909 8.424 29.7218 8.424 29.4904C8.424 29.2586 8.21616 29.0747 7.94723 29.0747H5.76391V29.0714H5.76358ZM12.9301 27.743L11.2033 30.7334H9.70125L12.106 26.7924H13.7511L16.1559 30.7298H14.6539L14.2518 30.0282L12.024 30.0279L12.3952 29.4253C12.4905 29.2892 12.6439 29.2072 12.8109 29.2072H13.7747L12.9334 27.746L12.9301 27.7427V27.743ZM23.3798 27.743L21.6564 30.7334H20.151L22.5558 26.7924H24.2009L26.602 30.7298H25.1033L24.6979 30.0282L22.4704 30.0279L22.835 29.4253C22.9303 29.2892 23.0837 29.2072 23.247 29.2072H24.2145L23.3732 27.746H23.3765L23.3798 27.7427V27.743ZM18.482 29.9057C18.7748 29.9057 19.0066 29.7659 19.0066 29.4764V26.7924H20.2805V29.5956C20.2805 30.4436 19.7184 30.7298 18.9827 30.7298H16.8574C16.6941 30.7298 16.5374 30.6448 16.4454 30.512L16.0742 29.9057H18.4856H18.4823H18.482ZM28.9284 29.9057C29.2213 29.9057 29.4563 29.7659 29.4563 29.4764V26.7924H30.7336V29.5956C30.7336 30.4436 30.1715 30.7298 29.4357 30.7298H27.3102C27.1435 30.7298 26.9901 30.6481 26.8982 30.512L26.527 29.9057H28.9314H28.9281H28.9284Z" fill="white"/>
<path d="M18.1381 8.48824C16.9186 8.54967 15.4236 8.79834 14.2519 9.15592C14.0374 9.22066 13.2708 9.44876 13.5467 9.7894C13.8601 10.1775 14.9807 9.8236 15.4166 9.76218C16.6769 9.58189 20.6006 9.02644 19.7902 11.4687C19.5551 12.1772 18.8466 12.9571 18.329 13.4784C17.7603 13.1344 16.7111 12.6132 16.7111 12.6132C16.1527 12.3339 15.5766 12.075 15.0046 11.8333C14.4597 11.6052 13.0052 10.9581 12.4876 10.9989C11.9766 11.0398 11.7279 11.4212 12.0483 11.8675C12.3448 12.2831 13.4893 12.7702 13.976 13.0494C14.3063 13.2367 16.6975 14.6401 16.735 14.8137C16.7486 14.8715 16.5544 14.994 16.5 15.0352C15.3794 15.8798 14.1121 16.4692 12.9066 17.1637C12.5454 17.3716 11.6771 17.8417 12.0347 18.3729C12.382 18.8942 13.3359 18.4579 13.7854 18.2946C16.7214 17.2285 21.1425 14.926 22.7946 12.1772C24.8414 8.7678 20.3828 8.37602 18.1418 8.48492L18.1388 8.48824H18.1381Z" fill="white"/>
<path d="M23.2023 18.3762C22.9878 17.5724 21.9011 16.1657 21.247 15.6617C21.2367 15.6547 21.2264 15.6448 21.2165 15.6378C21.2165 15.6378 21.1654 15.5936 21.0973 15.5528L21.0531 15.5834L19.0299 16.9051C19.4555 17.5625 19.9701 18.1415 19.8679 18.9895C19.735 20.117 17.8207 20.1203 16.9966 20.0761C16.1042 20.0287 15.2323 19.7697 14.384 19.688C14.0603 19.6575 13.1068 19.773 13.6347 20.2295C14.0639 20.604 16.3904 20.9859 17.0374 21.0606C18.8154 21.2717 24.0439 21.4965 23.2026 18.3663L23.2023 18.3762Z" fill="white"/>
</svg>
